<svg width="600" height="400" viewBox="0 0 600 400" xmlns="http://www.w3.org/2000/svg">
  <style>
    .dark-bg { fill: #1e1e1e; }
    .primary { fill: #800020; }
    .primary-light { fill: #a52a2a; }
    .accent { fill: #d4af37; }
    .text-light { fill: #f5f5f5; }
    .text-secondary { fill: #b3b3b3; }
    .line { stroke: #800020; stroke-width: 2; fill: none; }
    .line-accent { stroke: #d4af37; stroke-width: 2; fill: none; }
    .line-secondary { stroke: #b3b3b3; stroke-width: 1; fill: none; stroke-dasharray: 4 4; }
    .grid-line { stroke: #333; stroke-width: 1; }
  </style>
  
  <!-- Background elements -->
  <rect x="50" y="50" width="500" height="300" rx="10" class="dark-bg" />
  
  <!-- Grid lines -->
  <g>
    <line x1="100" y1="100" x2="100" y2="300" class="grid-line" />
    <line x1="200" y1="100" x2="200" y2="300" class="grid-line" />
    <line x1="300" y1="100" x2="300" y2="300" class="grid-line" />
    <line x1="400" y1="100" x2="400" y2="300" class="grid-line" />
    <line x1="500" y1="100" x2="500" y2="300" class="grid-line" />
    
    <line x1="100" y1="100" x2="500" y2="100" class="grid-line" />
    <line x1="100" y1="150" x2="500" y2="150" class="grid-line" />
    <line x1="100" y1="200" x2="500" y2="200" class="grid-line" />
    <line x1="100" y1="250" x2="500" y2="250" class="grid-line" />
    <line x1="100" y1="300" x2="500" y2="300" class="grid-line" />
  </g>
  
  <!-- Chart elements -->
  <polyline points="100,250 150,230 200,240 250,200 300,180 350,150 400,170 450,120 500,100" class="line" />
  <polyline points="100,280 150,270 200,260 250,265 300,240 350,230 400,220 450,210 500,190" class="line-accent" />
  
  <!-- Data points -->
  <circle cx="100" cy="250" r="5" class="primary" />
  <circle cx="150" cy="230" r="5" class="primary" />
  <circle cx="200" cy="240" r="5" class="primary" />
  <circle cx="250" cy="200" r="5" class="primary" />
  <circle cx="300" cy="180" r="5" class="primary" />
  <circle cx="350" cy="150" r="5" class="primary" />
  <circle cx="400" cy="170" r="5" class="primary" />
  <circle cx="450" cy="120" r="5" class="primary" />
  <circle cx="500" cy="100" r="5" class="primary" />
  
  <circle cx="100" cy="280" r="5" class="accent" />
  <circle cx="150" cy="270" r="5" class="accent" />
  <circle cx="200" cy="260" r="5" class="accent" />
  <circle cx="250" cy="265" r="5" class="accent" />
  <circle cx="300" cy="240" r="5" class="accent" />
  <circle cx="350" cy="230" r="5" class="accent" />
  <circle cx="400" cy="220" r="5" class="accent" />
  <circle cx="450" cy="210" r="5" class="accent" />
  <circle cx="500" cy="190" r="5" class="accent" />
  
  <!-- Medical symbols -->
  <g transform="translate(150, 130) scale(0.8)">
    <circle cx="0" cy="0" r="25" class="primary-light" opacity="0.3" />
    <path d="M-15,0 L15,0 M0,-15 L0,15" stroke="#f5f5f5" stroke-width="4" />
  </g>
  
  <g transform="translate(400, 250) scale(0.8)">
    <circle cx="0" cy="0" r="25" class="primary-light" opacity="0.3" />
    <path d="M-15,0 L15,0 M0,-15 L0,15" stroke="#f5f5f5" stroke-width="4" />
  </g>
  
  <!-- Title and labels -->
  <text x="300" y="80" text-anchor="middle" class="text-light" font-size="18" font-weight="bold">Diabetes Prediction Model</text>
  <text x="100" y="330" text-anchor="middle" class="text-secondary" font-size="12">Input Data</text>
  <text x="60" y="200" text-anchor="middle" class="text-secondary" font-size="12" transform="rotate(-90, 60, 200)">Prediction</text>
  
  <text x="520" y="100" text-anchor="start" class="primary" font-size="12">Risk Factor</text>
  <text x="520" y="190" text-anchor="start" class="accent" font-size="12">Normal Range</text>
</svg>